# Blender 3.4.1
# www.blender.org
mtllib saw.mtl.mtl
o Plane
v -0.001000 0.000000 0.001000
v 0.001000 0.000000 0.001000
v -0.001000 0.000000 -0.001000
v 0.001000 0.000000 -0.001000
vn -0.0000 1.0000 -0.0000
vt 0.000000 0.000000
vt 1.000000 0.000000
vt 0.000000 1.000000
vt 1.000000 1.000000
s 0
f 1/1/1 2/2/1 4/4/1 3/3/1
o Plane.001
v -0.375000 0.000000 -1.000000
v -0.375000 0.000000 1.000000
v 0.375000 0.000000 1.000000
v 0.375000 0.000000 -1.000000
v 1.000000 0.000000 -0.375000
v -1.000000 0.000000 -0.375000
v -0.375000 0.000000 -0.375000
v 0.375000 0.000000 -0.375000
v -1.000000 0.000000 0.375000
v 1.000000 0.000000 0.375000
v -0.375000 0.000000 0.375000
v 0.375000 0.000000 0.375000
v 0.375000 0.000000 -1.500000
v 1.500000 0.000000 0.375000
v -1.500000 0.000000 -0.375000
v -0.375000 0.000000 1.500000
v 1.353554 0.000000 -0.728554
v 0.728554 0.000000 1.353554
v -1.353554 0.000000 0.728554
v -0.728554 0.000000 -1.353554
v 0.375000 0.500000 -1.000000
v -0.375000 0.500000 -1.000000
v -0.375000 0.500000 -0.375000
v -0.375000 0.500000 1.000000
v 0.375000 0.500000 1.000000
v 0.375000 0.500000 -0.375000
v 1.000000 0.500000 0.375000
v 1.000000 0.500000 -0.375000
v -1.000000 0.500000 -0.375000
v -1.000000 0.500000 0.375000
v -0.375000 0.500000 0.375000
v 0.375000 0.500000 0.375000
v 0.375000 0.500000 -1.500000
v -1.500000 0.500000 -0.375000
v 1.500000 0.500000 0.375000
v -0.375000 0.500000 1.500000
v 1.353554 0.500000 -0.728554
v 0.728554 0.500000 1.353554
v -1.353554 0.500000 0.728554
v -0.728554 0.500000 -1.353554
vn -0.0000 -1.0000 -0.0000
vn -0.0000 1.0000 -0.0000
vn -0.7071 -0.0000 -0.7071
vn 0.5547 -0.0000 0.8321
vn 0.7071 -0.0000 -0.7071
vn -1.0000 -0.0000 -0.0000
vn -0.9636 -0.0000 -0.2673
vn 0.8321 -0.0000 -0.5547
vn 0.2673 -0.0000 -0.9636
vn -0.5547 -0.0000 -0.8321
vn 1.0000 -0.0000 -0.0000
vn 0.9636 -0.0000 0.2673
vn 0.7071 -0.0000 0.7071
vn -0.8321 -0.0000 0.5547
vn -0.7071 -0.0000 0.7071
vn -0.0000 -0.0000 1.0000
vn -0.2673 -0.0000 0.9636
vn -0.0000 -0.0000 -1.0000
vt 0.250000 1.000000
vt 0.250000 0.000000
vt 0.750000 0.000000
vt 0.750000 1.000000
vt 1.000000 0.750000
vt 0.000000 0.750000
vt 0.250000 0.750000
vt 0.750000 0.750000
vt 0.000000 0.250000
vt 1.000000 0.250000
vt 0.250000 0.250000
vt 0.750000 0.250000
vt 0.750000 1.000000
vt 1.000000 0.250000
vt 0.000000 0.750000
vt 0.250000 0.000000
vt 1.000000 0.750000
vt 0.750000 0.000000
vt 0.000000 0.250000
vt 0.250000 1.000000
vt 0.750000 1.000000
vt 0.250000 1.000000
vt 0.250000 0.750000
vt 0.250000 0.000000
vt 0.750000 0.000000
vt 0.750000 0.750000
vt 1.000000 0.250000
vt 1.000000 0.750000
vt 0.000000 0.750000
vt 0.000000 0.250000
vt 0.250000 0.250000
vt 0.750000 0.250000
vt 0.750000 1.000000
vt 0.000000 0.750000
vt 1.000000 0.250000
vt 0.250000 0.000000
vt 1.000000 0.750000
vt 0.750000 0.000000
vt 0.000000 0.250000
vt 0.250000 1.000000
s 0
f 12/12/2 8/8/2 9/9/2
f 7/7/2 16/16/2 14/14/2
f 5/5/2 11/11/2 10/10/2
f 13/13/2 15/15/2 6/6/2
f 12/12/2 11/11/2 5/5/2 8/8/2
f 11/11/2 15/15/2 13/13/2 10/10/2
f 9/9/2 14/14/2 16/16/2 12/12/2
f 16/16/2 7/7/2 6/6/2 15/15/2
f 12/12/2 16/16/2 15/15/2 11/11/2
f 5/5/2 17/17/2 8/8/2
f 9/9/2 18/18/2 14/14/2
f 13/13/2 19/19/2 10/10/2
f 7/7/2 20/20/2 6/6/2
f 8/8/2 21/21/2 9/9/2
f 14/14/2 22/22/2 7/7/2
f 6/6/2 23/23/2 13/13/2
f 10/10/2 24/24/2 5/5/2
f 30/30/3 32/32/3 25/25/3
f 29/29/3 31/31/3 36/36/3
f 26/26/3 33/33/3 27/27/3
f 34/34/3 28/28/3 35/35/3
f 30/30/3 25/25/3 26/26/3 27/27/3
f 27/27/3 33/33/3 34/34/3 35/35/3
f 32/32/3 30/30/3 36/36/3 31/31/3
f 36/36/3 35/35/3 28/28/3 29/29/3
f 30/30/3 27/27/3 35/35/3 36/36/3
f 26/26/3 25/25/3 37/37/3
f 32/32/3 31/31/3 39/39/3
f 34/34/3 33/33/3 38/38/3
f 29/29/3 28/28/3 40/40/3
f 25/25/3 32/32/3 41/41/3
f 31/31/3 29/29/3 42/42/3
f 28/28/3 34/34/3 43/43/3
f 33/33/3 26/26/3 44/44/3
f 13/13/4 23/23/4 43/43/4 34/34/4
f 20/20/5 7/7/5 29/29/5 40/40/5
f 5/5/6 24/24/6 44/44/6 26/26/6
f 6/6/7 20/20/7 40/40/7 28/28/7
f 24/24/8 10/10/8 33/33/8 44/44/8
f 18/18/9 9/9/9 32/32/9 39/39/9
f 21/21/10 8/8/10 25/25/10 41/41/10
f 17/17/11 5/5/11 26/26/11 37/37/11
f 8/8/12 17/17/12 37/37/12 25/25/12
f 22/22/13 14/14/13 31/31/13 42/42/13
f 9/9/14 21/21/14 41/41/14 32/32/14
f 19/19/15 13/13/15 34/34/15 38/38/15
f 7/7/16 22/22/16 42/42/16 29/29/16
f 14/14/17 18/18/17 39/39/17 31/31/17
f 23/23/18 6/6/18 28/28/18 43/43/18
f 10/10/19 19/19/19 38/38/19 33/33/19
